<svg width="136" height="29" viewBox="0 0 136 29" fill="none" xmlns="http://www.w3.org/2000/svg">
<path d="M66.9504 10.0473H63.167V24.0485H66.9504V10.0473Z" fill="#181433"/>
<path d="M77.5897 15.9395L83.306 24.0484H78.667L74.9713 18.6974L73.4249 20.3471V24.0484H69.6416V3.42807H73.4249V15.2538L78.2649 10.0472H83.2132L77.5897 15.9395Z" fill="#181433"/>
<path d="M97.6766 17.0478C97.6766 21.3472 94.5169 24.4763 90.3367 24.4763C89.3598 24.4949 88.3893 24.3148 87.484 23.9471C86.5788 23.5793 85.7576 23.0316 85.0703 22.337C84.3831 21.6424 83.844 20.8154 83.4858 19.9062C83.1276 18.9971 82.9577 18.0246 82.9865 17.0478C82.9865 12.7227 86.1462 9.61932 90.3316 9.61932C94.5169 9.61932 97.6766 12.7227 97.6766 17.0478ZM93.8933 17.0478C93.8933 14.4032 92.1871 13.0629 90.3367 13.0629C88.4863 13.0629 86.7802 14.4032 86.7802 17.0478C86.7802 19.6924 88.4863 21.0327 90.3367 21.0327C92.1871 21.0327 93.8933 19.6924 93.8933 17.0478Z" fill="#181433"/>
<path d="M108.346 13.8053C107.971 13.7284 107.59 13.6904 107.207 13.6919C105.274 13.6919 103.599 14.6301 103.599 17.6459V24.0485H99.8154V10.0473H103.485V12.1093C104.336 10.2586 106.274 9.9184 107.47 9.9184C107.764 9.92105 108.059 9.93998 108.351 9.9751L108.346 13.8053Z" fill="#181433"/>
<path d="M127.98 19.4398C128.062 20.5481 128.887 21.574 130.557 21.574C131.809 21.574 132.407 20.9193 132.407 20.1769C132.407 19.5532 131.979 19.0377 130.902 18.8108L129.052 18.383C126.346 17.785 125.124 16.1663 125.124 14.2022C125.124 11.6968 127.346 9.61932 130.361 9.61932C134.345 9.61932 135.68 12.1505 135.85 13.6609L132.696 14.3723C132.63 13.821 132.352 13.317 131.921 12.9668C131.49 12.6166 130.94 12.4478 130.387 12.4959C129.392 12.4959 128.598 13.0939 128.598 13.8877C128.598 14.5734 129.114 14.9961 129.876 15.1404L131.866 15.5683C134.629 16.1354 136.021 17.8159 136.021 19.8676C136.021 22.141 134.258 24.4763 130.588 24.4763C126.377 24.4763 124.918 21.7441 124.753 20.1512L127.98 19.4398Z" fill="#181433"/>
<path d="M24.4166 3.86115H0V28.2808H24.4166V3.86115Z" fill="#181433"/>
<path d="M28.1536 0L0 18.5944V28.2808H10.5872L28.1536 0Z" fill="#EBC2F9"/>
<path d="M45.7197 18.8986V18.8522C45.7197 19.0326 45.7197 19.2182 45.7197 19.3986C45.7043 19.2336 45.7197 19.0738 45.7197 18.8986Z" fill="#181433"/>
<path d="M41.9776 10.0473V18.1872C41.996 18.5641 41.9384 18.9409 41.8082 19.2952C41.6781 19.6494 41.478 19.9738 41.2199 20.2492C40.7078 20.7103 40.0431 20.9655 39.354 20.9655C38.6649 20.9655 38.0002 20.7103 37.4881 20.2492C36.9916 19.6662 36.7354 18.9161 36.7716 18.1511V10.0473H32.9883V18.8522C32.9883 20.3287 33.5748 21.7449 34.6188 22.789C35.6627 23.8331 37.0787 24.4196 38.5551 24.4196H40.153C41.5314 24.4193 42.8608 23.9079 43.8842 22.9843C44.9077 22.0608 45.5524 20.7906 45.694 19.4192C45.694 19.2388 45.694 19.0532 45.694 18.8728V10.0473H41.9776Z" fill="#181433"/>
<path d="M113.914 24.0485V15.9086C113.896 15.5316 113.953 15.1548 114.083 14.8006C114.214 14.4463 114.414 14.1219 114.672 13.8466C115.185 13.385 115.85 13.1297 116.54 13.1297C117.23 13.1297 117.896 13.385 118.409 13.8466C118.915 14.4382 119.172 15.2034 119.125 15.9808V24.0485H122.909V15.2436C122.907 13.7674 122.32 12.3521 121.277 11.3083C120.233 10.2645 118.818 9.67745 117.342 9.67609H115.739C114.361 9.67658 113.032 10.1881 112.009 11.1118C110.987 12.0355 110.343 13.3056 110.203 14.6765C110.182 14.8579 110.172 15.0404 110.172 15.223V24.0485H113.914Z" fill="#181433"/>
<path d="M51.8171 24.0485V15.9086C51.7987 15.5316 51.8563 15.1548 51.9865 14.8006C52.1167 14.4463 52.3167 14.1219 52.5748 13.8466C53.0877 13.385 53.7533 13.1297 54.4433 13.1297C55.1333 13.1297 55.7988 13.385 56.3118 13.8466C56.8181 14.4382 57.0749 15.2034 57.0282 15.9808V24.0485H60.8219V15.2436C60.8205 13.7674 60.2336 12.3521 59.1899 11.3083C58.1462 10.2645 56.7311 9.67745 55.2551 9.67609H53.6521C52.2742 9.67658 50.9454 10.1881 49.9228 11.1118C48.9003 12.0355 48.2566 13.3056 48.1162 14.6765C48.1162 14.8569 48.1162 15.0425 48.1162 15.223V24.0485H51.8171Z" fill="#181433"/>
<path d="M61.8535 5.62935C63.2244 6.34583 64.3432 7.46476 65.0596 8.83581C65.7738 7.46493 66.8909 6.34587 68.2605 5.62935C66.8925 4.91312 65.7757 3.79622 65.0596 2.42804C64.3415 3.79659 63.223 4.91342 61.8535 5.62935Z" fill="#181433"/>
</svg>
